<mxfile host="drawio-plugin" modified="2021-08-03T13:03:42.985Z" agent="5.0 (Windows NT 6.2; Win64; x64) AppleWebKit/537.36 (KHTML, like Gecko) Chrome/87.0.4280.141 Safari/537.36" etag="XXMeJTL2sW2YXwS0gfb7" version="14.7.4" type="embed"><diagram id="NS3CU-F8-X4yPr3wV_mp" name="Page-1"><mxGraphModel dx="866" dy="612" grid="1" gridSize="10" guides="1" tooltips="1" connect="1" arrows="1" fold="1" page="1" pageScale="1" pageWidth="827" pageHeight="1169" math="0" shadow="0"><root><mxCell id="0"/><mxCell id="1" parent="0"/><mxCell id="wH-x_Tq1mVX27meLTxCh-3" style="edgeStyle=orthogonalEdgeStyle;rounded=0;orthogonalLoop=1;jettySize=auto;html=1;exitX=0.5;exitY=1;exitDx=0;exitDy=0;entryX=0.5;entryY=0;entryDx=0;entryDy=0;fontColor=#000000;" parent="1" source="wH-x_Tq1mVX27meLTxCh-1" target="wH-x_Tq1mVX27meLTxCh-2" edge="1"><mxGeometry relative="1" as="geometry"/></mxCell><mxCell id="wH-x_Tq1mVX27meLTxCh-1" value="Cliente&lt;br&gt;in coda" style="ellipse;whiteSpace=wrap;html=1;fillColor=#dae8fc;strokeColor=#6c8ebf;gradientColor=#ffffff;fontColor=#000000;" parent="1" vertex="1"><mxGeometry x="190" width="120" height="80" as="geometry"/></mxCell><mxCell id="wH-x_Tq1mVX27meLTxCh-7" style="edgeStyle=orthogonalEdgeStyle;rounded=0;orthogonalLoop=1;jettySize=auto;html=1;exitX=0.5;exitY=1;exitDx=0;exitDy=0;fontColor=#000000;entryX=0.5;entryY=0;entryDx=0;entryDy=0;" parent="1" source="wH-x_Tq1mVX27meLTxCh-2" target="3" edge="1"><mxGeometry relative="1" as="geometry"><mxPoint x="250" y="320" as="targetPoint"/></mxGeometry></mxCell><mxCell id="wH-x_Tq1mVX27meLTxCh-2" value="N code&lt;br&gt;adiacenti" style="shape=parallelogram;perimeter=parallelogramPerimeter;whiteSpace=wrap;html=1;fixedSize=1;fillColor=#d5e8d4;strokeColor=#82b366;fontColor=#000000;" parent="1" vertex="1"><mxGeometry x="190" y="120" width="120" height="60" as="geometry"/></mxCell><mxCell id="wH-x_Tq1mVX27meLTxCh-9" style="edgeStyle=orthogonalEdgeStyle;rounded=0;orthogonalLoop=1;jettySize=auto;html=1;exitX=0.5;exitY=1;exitDx=0;exitDy=0;fontColor=#000000;entryX=0.5;entryY=0;entryDx=0;entryDy=0;" parent="1" source="wH-x_Tq1mVX27meLTxCh-6" target="wH-x_Tq1mVX27meLTxCh-8" edge="1"><mxGeometry relative="1" as="geometry"><mxPoint x="530" y="520" as="targetPoint"/></mxGeometry></mxCell><mxCell id="wH-x_Tq1mVX27meLTxCh-6" value="Valutazione&lt;br&gt;coda ottima" style="rounded=0;whiteSpace=wrap;html=1;fillColor=#f5f5f5;strokeColor=#666666;fontColor=#000000;" parent="1" vertex="1"><mxGeometry x="190" y="390" width="120" height="60" as="geometry"/></mxCell><mxCell id="wH-x_Tq1mVX27meLTxCh-12" value="Si" style="edgeStyle=orthogonalEdgeStyle;rounded=0;orthogonalLoop=1;jettySize=auto;html=1;exitX=0;exitY=0.5;exitDx=0;exitDy=0;entryX=0.5;entryY=0;entryDx=0;entryDy=0;fontColor=#FFFFFF;" parent="1" source="wH-x_Tq1mVX27meLTxCh-8" target="wH-x_Tq1mVX27meLTxCh-11" edge="1"><mxGeometry x="-0.7687" y="-15" relative="1" as="geometry"><mxPoint as="offset"/></mxGeometry></mxCell><mxCell id="wH-x_Tq1mVX27meLTxCh-14" value="No" style="edgeStyle=orthogonalEdgeStyle;rounded=0;orthogonalLoop=1;jettySize=auto;html=1;exitX=0.5;exitY=1;exitDx=0;exitDy=0;entryX=0.5;entryY=0;entryDx=0;entryDy=0;fontColor=#FFFFFF;" parent="1" source="wH-x_Tq1mVX27meLTxCh-8" target="wH-x_Tq1mVX27meLTxCh-13" edge="1"><mxGeometry x="-0.0588" y="20" relative="1" as="geometry"><mxPoint as="offset"/></mxGeometry></mxCell><mxCell id="wH-x_Tq1mVX27meLTxCh-8" value="Cambiare&lt;br&gt;coda&lt;br&gt;conviene?" style="rhombus;whiteSpace=wrap;html=1;fillColor=#fff2cc;strokeColor=#d6b656;fontColor=#000000;" parent="1" vertex="1"><mxGeometry x="187" y="490" width="126" height="90" as="geometry"/></mxCell><mxCell id="wH-x_Tq1mVX27meLTxCh-15" value="No" style="edgeStyle=orthogonalEdgeStyle;rounded=0;orthogonalLoop=1;jettySize=auto;html=1;exitX=1;exitY=0.5;exitDx=0;exitDy=0;entryX=0.5;entryY=0;entryDx=0;entryDy=0;fontColor=#FFFFFF;" parent="1" source="wH-x_Tq1mVX27meLTxCh-11" target="wH-x_Tq1mVX27meLTxCh-13" edge="1"><mxGeometry x="-0.8644" y="15" relative="1" as="geometry"><mxPoint as="offset"/></mxGeometry></mxCell><mxCell id="wH-x_Tq1mVX27meLTxCh-17" value="Si&lt;br&gt;" style="edgeStyle=orthogonalEdgeStyle;rounded=0;orthogonalLoop=1;jettySize=auto;html=1;exitX=0.5;exitY=1;exitDx=0;exitDy=0;entryX=0.5;entryY=0;entryDx=0;entryDy=0;fontColor=#FFFFFF;" parent="1" source="wH-x_Tq1mVX27meLTxCh-11" target="wH-x_Tq1mVX27meLTxCh-20" edge="1"><mxGeometry x="-0.2" y="15" relative="1" as="geometry"><mxPoint as="offset"/><mxPoint x="80" y="740" as="targetPoint"/></mxGeometry></mxCell><mxCell id="wH-x_Tq1mVX27meLTxCh-11" value="Il guadagno&lt;br&gt;supera il&lt;br&gt;threshold?" style="rhombus;whiteSpace=wrap;html=1;fillColor=#fff2cc;strokeColor=#d6b656;fontColor=#000000;" parent="1" vertex="1"><mxGeometry x="15" y="600" width="130" height="90" as="geometry"/></mxCell><mxCell id="wH-x_Tq1mVX27meLTxCh-23" style="edgeStyle=orthogonalEdgeStyle;rounded=0;orthogonalLoop=1;jettySize=auto;html=1;exitX=0.5;exitY=1;exitDx=0;exitDy=0;entryX=0.5;entryY=0;entryDx=0;entryDy=0;fontColor=#FFFFFF;" parent="1" source="wH-x_Tq1mVX27meLTxCh-13" target="wH-x_Tq1mVX27meLTxCh-19" edge="1"><mxGeometry relative="1" as="geometry"/></mxCell><mxCell id="wH-x_Tq1mVX27meLTxCh-13" value="Rimani nella&lt;br&gt;coda corrente" style="rounded=0;whiteSpace=wrap;html=1;fillColor=#f5f5f5;strokeColor=#666666;fontColor=#000000;" parent="1" vertex="1"><mxGeometry x="190" y="730" width="120" height="60" as="geometry"/></mxCell><mxCell id="wH-x_Tq1mVX27meLTxCh-19" value="Fine jockeying" style="ellipse;whiteSpace=wrap;html=1;fillColor=#dae8fc;strokeColor=#6c8ebf;fontColor=#000000;" parent="1" vertex="1"><mxGeometry x="190" y="850" width="120" height="80" as="geometry"/></mxCell><mxCell id="wH-x_Tq1mVX27meLTxCh-22" style="edgeStyle=orthogonalEdgeStyle;rounded=0;orthogonalLoop=1;jettySize=auto;html=1;exitX=0.5;exitY=1;exitDx=0;exitDy=0;entryX=0;entryY=0.5;entryDx=0;entryDy=0;fontColor=#FFFFFF;" parent="1" source="wH-x_Tq1mVX27meLTxCh-20" target="wH-x_Tq1mVX27meLTxCh-19" edge="1"><mxGeometry relative="1" as="geometry"/></mxCell><mxCell id="wH-x_Tq1mVX27meLTxCh-20" value="Cambia la coda" style="rounded=0;whiteSpace=wrap;html=1;fillColor=#f5f5f5;strokeColor=#666666;fontColor=#000000;" parent="1" vertex="1"><mxGeometry x="20" y="730" width="120" height="60" as="geometry"/></mxCell><mxCell id="3" value="La variabile&lt;br&gt;aleatoria ha&lt;br&gt;come esito&lt;br&gt;fare jockeying?&lt;br&gt;&lt;span style=&quot;font-family: monospace; font-size: 0px;&quot;&gt;%3CmxGraphModel%3E%3Croot%3E%3CmxCell%20id%3D%220%22%2F%3E%3CmxCell%20id%3D%221%22%20parent%3D%220%22%2F%3E%3CmxCell%20id%3D%222%22%20value%3D%22Il%20guadagno%26lt%3Bbr%26gt%3Bsupera%20il%26lt%3Bbr%26gt%3Bthreshold%22%20style%3D%22rhombus%3BwhiteSpace%3Dwrap%3Bhtml%3D1%3BfillColor%3D%23fff2cc%3BstrokeColor%3D%23d6b656%3B%22%20vertex%3D%221%22%20parent%3D%221%22%3E%3CmxGeometry%20x%3D%22190%22%20y%3D%22420%22%20width%3D%22130%22%20height%3D%2290%22%20as%3D%22geometry%22%2F%3E%3C%2FmxCell%3E%3C%2Froot%3E%3C%2FmxGraphModel%3E&lt;/span&gt;" style="rhombus;whiteSpace=wrap;html=1;fillColor=#fff2cc;strokeColor=#d6b656;fontColor=#000000;" vertex="1" parent="1"><mxGeometry x="170" y="230" width="160" height="120" as="geometry"/></mxCell><mxCell id="5" value="Si" style="edgeStyle=orthogonalEdgeStyle;rounded=0;orthogonalLoop=1;jettySize=auto;html=1;exitX=0.5;exitY=1;exitDx=0;exitDy=0;fontColor=#FFFFFF;entryX=0.5;entryY=0;entryDx=0;entryDy=0;" edge="1" parent="1" source="3" target="wH-x_Tq1mVX27meLTxCh-6"><mxGeometry x="-0.7687" y="-15" relative="1" as="geometry"><mxPoint as="offset"/><mxPoint x="197" y="775" as="sourcePoint"/><mxPoint x="250" y="570" as="targetPoint"/></mxGeometry></mxCell><mxCell id="6" value="No" style="edgeStyle=orthogonalEdgeStyle;rounded=0;orthogonalLoop=1;jettySize=auto;html=1;fontColor=#FFFFFF;exitX=1;exitY=0.5;exitDx=0;exitDy=0;entryX=1;entryY=0.5;entryDx=0;entryDy=0;" edge="1" parent="1" source="3" target="wH-x_Tq1mVX27meLTxCh-13"><mxGeometry x="-0.8644" y="15" relative="1" as="geometry"><mxPoint as="offset"/><mxPoint x="520" y="630" as="sourcePoint"/><mxPoint x="420" y="230" as="targetPoint"/></mxGeometry></mxCell></root></mxGraphModel></diagram></mxfile>